# xmcd
#
# Track frame offsets:
#  150
#  15959
#  30177
#  43693
#  56644
#  70815
#  81479
#  95168
#  109655
#  123141
#  139503
#  151741
#  164105
#  179240
#  193572
#  207870
#
# Disc length: 2935 seconds
#
# Revision: 0
# Processed by: cddbd v1.5.1PL2 Copyright (c) Steve Scherf et al.
# Submitted via: AltoMP3_Maker 3.0
#
DISCID=d60b7510
DTITLE=Super Golden Chimes - Super Golden Chimes Originals
DYEAR=1900
DGENRE=
TTITLE0=Katharagama
TTITLE1=Kimada Nave
TTITLE2=Menike Nisa
TTITLE3=Eru Dina
TTITLE4=Samanalayo
TTITLE5=Moratuwa
TTITLE6=Deleepa Podi Puthu
TTITLE7=Sihina Pathum
TTITLE8=Muhudu Ralla
TTITLE9=Sandak Basa Giya
TTITLE10=Mage Palpathe
TTITLE11=Sihin Sinawai
TTITLE12=Sandai Tharui
TTITLE13=Seetha Sulangak
TTITLE14=Sathuta Sanasuma
TTITLE15=Pena Babulai
EXTD=
EXTT0=
EXTT1=
EXTT2=
EXTT3=
EXTT4=
EXTT5=
EXTT6=
EXTT7=
EXTT8=
EXTT9=
EXTT10=
EXTT11=
EXTT12=
EXTT13=
EXTT14=
EXTT15=
PLAYORDER=
